<svg xmlns="http://www.w3.org/2000/svg" xmlns:lucid="lucid" width="550" height="642"><g lucid:page-tab-id="0_0"><path d="M191.3 608.45l1.7-.7 1.8-1.07.85-.73.47-.56.28-.46.16-.4v-.03l.38-1.57.25-2.16v-3.1l-.58-4.87-2.02-8.45-6.35-17.27-2.55-5.8-2.87-7-20.5-58.9-2.3-4.68-1.65-2.87-1.25-1.9-1-1.33-.84-.97-.3-.3-.13-.12-.18-.15-.26-.2-.37-.25-.58-.36-.98-.52-1.83-.87-4.2-1.7-20.92-7-41.45-13.76-8.45-3.44-4.18-1.98-2.4-1.3-1.52-.93-1-.7-.72-.56-.52-.46-.38-.37-.3-.32-.22-.27-.18-.24-.14-.22-.1-.2-.1-.16-.07-.17-.06-.15-.05-.15-.04-.13v-.12l-.03-.12V446l-.12-3.3-1.16-3.67-4-6.25-4.3-6.52-.55-2.05v-1.6l.12-.6 3.83-11.15 2.42-5.67.44-4-.03-1.85-.56-4.54-1.22-3.97-1.93-3.76L53.5 383l-7.5-7.6-.34-.63-.14-.44-.04-.38v-.34l.1-.33.15-.36.27-.42.54-.57 1.2-.87.6-.36 5.8-3.94.8-.94.2-.52.06-.35-.04-.32-.13-.32-.32-.4-1.13-.85-5.44-3.45-1.05-1.38-.57-1.4-.18-1.7v-.43l1.86-11.8 1.75-4.2 1.7-2.35 2.4-2.5.2-.47.1-.55v-.13l-.2-1.4-2.4-5.6-5.3-7.77-.54-.5-21.86-14.17-.73-1.1-.24-.66-.07-.5v-.3l.52-2.83.85-2.94 1.28-3.14 1.85-3.48 2.7-4.02 4.15-4.95 7.15-6.93 26.1-20.44 10-8.63 4.14-4.5 2.37-3.2 1.5-2.58.96-2.18.62-1.95.36-1.82.15-1.72-.05-1.7-.22-1.7-.44-1.8-.7-1.9-1.05-2.1-1.54-2.42-2.3-2.88-3.63-3.6-1.44-1.26-.13-.12-.12-.12-.13-.15-.13-.15-.12-.18-.13-.2-.12-.24-.13-.27-.13-.3-.13-.4-.12-.43-.12-.55-.1-.68-.08-.85-.03-1.12.03-1.5.18-2.1.43-3.04.94-4.7 2.02-7.7 4.34-13.33 8.58-22.04 11.38-25.1.74-1.5L117.16 94l9.92-14.6 7.03-8.5 4.86-4.86.04-.04 4.75-4 5.9-4.38 7.2-4.62 8.5-4.73 9.92-4.7 11.33-4.5 12.78-4.13 14.3-3.62 2.58-.56 17.27-3.05L261 24.46l35.46-2.28 7.72-.17h.15l4.37.33 6.26.75 8.47 1.36 10.5 2.14 11.92 2.95 12.5 3.66 12.38 4.18 11.8 4.55 10.98 4.77 10.08 4.88 9.15 4.93 8.28 4.92 7.5 4.87 6.73 4.8 6.1 4.73 5.5 4.66 4.96 4.58 4.5 4.5 4.08 4.47 3.7 4.4 3.36 4.34 3.06 4.3 2.77 4.28 2.5 4.26 2.28 4.25 2.05 4.24.23.53 1.78 4.2 2.55 6.78 3.75 11.46 5.3 18.9 6.22 26.1 5 25.6 2.84 18.52 1.3 11.83.5 7.5.14 4.95-.03 2.83-1.38 24.05-1.6 11.34-1.94 9-2.33 7.9-2.74 7.25-3.22 6.9-.8 1.56-6.03 10.57-51.3 85.05-2.86 5.64-1.2 2.67-.6 1.5-.3.93-.2.63-.1.45-.07.33-.03.23-.67 10.36-.37 46.2.05 11.32.5 10.33.83 9.44 1.14 8.63 1.38 7.9 1.6 7.26 1.74 6.62 1.88 6.08 1.98 5.55 2.05 5.06 2.12 4.63 2.13 4.2 2.14 3.8 2.12 3.45 2.1 3.1 2.08 2.78 2 2.5 1.97 2.2 1.9 1.96 1.8 1.73 1.74 1.52 1.66 1.33 1.56 1.15 1.48 1 1.4.86 1.3.74 1.24.62 1.16.52 1.1.44 1 .36.96.3.9.22.84.18.8.14.73.1.7.05.66.03h.3" stroke="#3a414a" stroke-width="6" stroke-linejoin="round" fill="none"/><path d="M174.5 612l13-7.5 1.9 9.1z" stroke="#3a414a" stroke-width="6" fill="#3a414a"/><path d="M477.03 627.06l10.3-28.18" stroke="#3a414a" stroke-width="6" fill="none"/><path d="M267.92 331.02l-.08-4.1-.33-5.17-.5-4.8-.65-4.5-.8-4.2-.95-4.02-1.07-3.83-1.2-3.7-1.32-3.56-1.46-3.5-1.62-3.42-1.78-3.4-2-3.45-2.2-3.5-2.55-3.66-3-3.9-3.68-4.47-5.25-5.8-18.88-19.8-2.65-3.18-1.98-2.6-1.6-2.3-1.3-2.06-1.12-1.94-.96-1.83-.84-1.76-.72-1.7-.62-1.7-.54-1.65-.47-1.67-.38-1.67-.32-1.7-.26-1.73-.2-1.78-.1-1.84-.04-1.9v-.2l.37-11 .75-7.75.96-6 1.1-4.87 1.2-4.1 1.3-3.56 1.35-3.13 1.44-2.8 1.52-2.56 1.6-2.35 1.68-2.2 1.82-2.05 1.94-1.94 2.1-1.84 2.28-1.77 2.5-1.72 2.8-1.65 3.13-1.6 3.55-1.55 4.1-1.48 4.82-1.4 5.77-1.3 7.04-1.15 8.9-.86 11.62-.4 4.34.02 11.04.5 9.14 1 7.67 1.32 6.5 1.55 5.6 1.7 4.88 1.8 4.26 1.92 3.76 1.98 3.36 2.04 3 2.1 2.72 2.16 2.46 2.2 2.24 2.3 2.04 2.37 1.87 2.46 1.7 2.56 1.56 2.68 1.42 2.83 1.27 3 1.1 3.2.97 3.45.8 3.72.6 4.06.4 4.46.12 4.93-.23 5.54-.27 3.15-.1.74-.14.84-.22.97-.32 1.14-.46 1.37-.64 1.67-.94 2.1-1.38 2.72-2.15 3.77-3.62 5.68-7.7 10.87-31.6 42.34-4.37 6.9-2.7 4.72-1.78 3.53-1.23 2.76-.87 2.24-.62 1.86-.44 1.57-.3 1.35-.22 1.18-.13 1.05-.07.93-.02.35.06 6" stroke="#3a414a" stroke-width="3" stroke-linejoin="round" fill="none"/><path d="M267.92 330.98l.03 1.54" stroke="#3a414a" stroke-width="3" fill="none"/><path d="M304.37 327.7l-6.43-13.54 9.2-1.2z" stroke="#3a414a" stroke-width="3" fill="#3a414a"/><path d="M265.45 293.78l39.1-19.56M265.46 293.77l-.46.23M304.54 274.23l.46-.23M265.45 313.78l39.1-19.56M265.46 313.77l-.46.23M304.54 294.23l.46-.23M265.45 333.78l39.1-19.56M265.46 333.77l-.46.23M304.54 314.23l.46-.23" stroke="#979ea8" fill="none"/><path d="M285 113.5V90.38M285 113.5v.5" stroke="#fcce14" fill="none"/><path d="M285 75.62l4.63 14.26h-9.26z" stroke="#fcce14" fill="#fcce14"/><path d="M204.65 133.65l-8.06-8.07M204.64 133.64l.36.36" stroke="#fcce14" fill="none"/><path d="M186.14 115.14l13.37 6.8-6.55 6.57z" stroke="#fcce14" fill="#fcce14"/><path d="M184.5 214h-23.12M184.5 214h.5" stroke="#fcce14" fill="none"/><path d="M146.62 214l14.26-4.63v9.26z" stroke="#fcce14" fill="#fcce14"/><path d="M345.35 133.65l8.06-8.07M345.36 133.64l-.36.36" stroke="#fcce14" fill="none"/><path d="M363.86 115.14l-6.8 13.37-6.57-6.55z" stroke="#fcce14" fill="#fcce14"/><path d="M385.5 214h23.12M385.5 214h-.5" stroke="#fcce14" fill="none"/><path d="M423.38 214l-14.26 4.63v-9.26z" stroke="#fcce14" fill="#fcce14"/></g></svg>