<svg xmlns="http://www.w3.org/2000/svg" xmlns:xlink="http://www.w3.org/1999/xlink" xmlns:lucid="lucid" width="526" height="643"><g transform="translate(-737 -187)" lucid:page-tab-id="0_0"><path d="M1039.5 205l4.5.35 6.38.75 8.6 1.4 10.62 2.16 12.03 2.98 12.62 3.7 12.5 4.22 11.92 4.6 11.1 4.8 10.18 4.95 9.26 5 8.4 4.97 7.58 4.94 6.85 4.9 6.18 4.8 5.6 4.74 5.07 4.67 4.6 4.62 4.16 4.54 3.8 4.5 3.42 4.44 3.13 4.42 2.84 4.38 2.57 4.37 2.32 4.36 2.1 4.35.26.58 1.8 4.3 2.6 6.9 3.8 11.58 5.34 19 6.23 26.23 5.03 25.72 2.85 18.63 1.32 11.96.52 7.62.13 5.06-.03 2.96-1.4 24.23-1.6 11.57-2 9.23-2.4 8.1-2.82 7.46-3.28 7.06-.87 1.67-6.06 10.64-51.26 85-2.78 5.48-1.14 2.55-.54 1.37-.27.8-.15.5-.07.3-.04.2v.05l-.67 10.15-.37 46.12.05 11.23.48 10.2.83 9.3 1.13 8.52 1.37 7.8 1.56 7.1 1.72 6.53 1.84 5.95 1.94 5.43 2 4.95 2.06 4.5 2.07 4.08 2.07 3.7 2.07 3.34 2.03 3 2 2.68 1.93 2.4 1.88 2.1 1.8 1.88 1.72 1.64 1.64 1.43 1.55 1.25 1.45 1.08 1.37.93 1.3.8 1.2.66 1.12.55 1.04.47.97.4.9.3.83.26.77.2.72.15.66.12.62.08.57.04.55.03h.26l-.06 6h-.36l-.76-.04-.83-.07-.86-.12-.9-.15-.97-.2-1.02-.28-1.08-.32-1.14-.4-1.2-.5-1.28-.56-1.34-.68-1.42-.8-1.5-.93-1.6-1.06-1.65-1.22-1.75-1.4-1.83-1.6-1.9-1.83-1.98-2.06-2.05-2.32-2.1-2.58-2.14-2.9-2.18-3.2-2.2-3.54-2.2-3.92-2.2-4.3-2.14-4.74-2.1-5.18-2.03-5.67-1.92-6.2-1.77-6.76-1.62-7.38-1.4-8.04-1.16-8.76-.85-9.57-.5-10.45-.04-11.4.37-46.32.68-10.56.07-.4.1-.47.13-.58.22-.77.37-1.07.63-1.63 1.26-2.8 2.93-5.8 51.33-85.12 5.97-10.48.76-1.46 3.12-6.74 2.66-7.05 2.27-7.67 1.9-8.8 1.55-11.1 1.37-23.85.03-2.7-.12-4.82-.5-7.38-1.3-11.7-2.8-18.4-5-25.48-6.17-26-5.28-18.76-3.7-11.33-2.5-6.68-1.73-4.1-.22-.46-2-4.15-2.22-4.14-2.45-4.15-2.7-4.17-2.97-4.2-3.28-4.25-3.63-4.3-4-4.36-4.4-4.43-4.9-4.5-5.4-4.58-5.98-4.66-6.64-4.73-7.37-4.8-8.17-4.85-9.04-4.87-9.96-4.82-10.87-4.73-11.7-4.5-12.25-4.15-12.38-3.62-11.8-2.92-10.38-2.1-8.35-1.35-6.14-.73-4.23-.32-7.58.16-35.33 2.27-27.3 3.25-1.35.24v-6.1l.47-.08 27.62-3.28 35.6-2.3 7.88-.17zm-81.76 13.66l-5.9 1.05-2.48.54-14.15 3.6-12.6 4.06-11.13 4.43-9.74 4.6-8.35 4.65-7 4.5-5.77 4.27-4.6 3.9-4.66 4.66-6.86 8.3-9.77 14.38-13.78 25.05-.68 1.4L828.9 333l-8.52 21.88-4.28 13.16-1.97 7.53-.9 4.53-.42 2.87-.15 1.92-.03 1.3.03.96.06.7.1.5.07.37.07.28.07.22.07.15.06.12.04.07.04.06.03.03.02.03h.02l.05.05 1.5 1.3 3.8 3.8 2.53 3.14 1.72 2.68 1.2 2.4.8 2.22.5 2.1.28 2.04.04 2.02-.2 2.05-.4 2.13-.73 2.27-1.1 2.5-1.65 2.84-2.56 3.5-4.37 4.72-10.2 8.8-26.03 20.37-6.92 6.72-3.94 4.7-2.52 3.78-1.7 3.2-1.17 2.86-.76 2.63-.42 2.27.17.25 21.55 13.98.97.9 5.66 8.3 2.68 6.22.28 2.08-.02.6-.2 1.1-.56 1.3-2.62 2.72-1.38 1.9-1.47 3.55-1.77 11.26v.02l.12 1.07.26.66.5.64 5.06 3.2 1.56 1.16.83 1.07.44 1.08.13 1.1-.17 1.17-.55 1.25-1.3 1.6-6.26 4.23-.55.33-.6.44 6.96 7.04 3.4 4.46 2.18 4.23 1.38 4.46.6 4.97.04 2.2-.5 4.62-2.55 5.97-3.72 10.85-.02.1v.94l.32 1.2 4.03 6.15 4.23 6.6 1.4 4.46.13 3.82v.03l.07.08.07.1.13.15.18.2.27.25.4.34.57.46.88.6 1.38.85 2.26 1.23 4.02 1.9 8.28 3.37 41.37 13.72 21 7.04 4.37 1.76 1.97.94 1.12.6.7.44.52.36.38.3.3.26.24.23.37.4.95 1.08 1.13 1.5 1.36 2.05 1.73 3.04 2.42 4.93 20.54 59 2.83 6.9 2.56 5.83 6.44 17.52 2.1 8.8.62 5.2v3.46l-.3 2.5-.48 2.02-.33.83-.54.85-.78.93-1.23 1.04-2.2 1.34-1.9.77-2.26-5.57 1.46-.6 1.36-.8.5-.44.16-.2h.02l.28-1.2.2-1.82v-2.76l-.52-4.5-1.94-8.12-6.26-17.02-2.52-5.73-2.92-7.12-20.48-58.8-2.17-4.45-1.54-2.7-1.15-1.74-.9-1.17-.72-.85-.2-.2-.02-.04-.06-.03-.12-.1-.24-.16-.43-.26-.84-.45-1.67-.8-4.05-1.63-20.82-7-41.54-13.77-8.63-3.5-4.33-2.04-2.55-1.38-1.66-1.02-1.15-.8-.85-.65-.64-.55-.5-.5-.4-.42-.33-.4-.27-.38-.23-.35-.2-.34-.16-.32-.13-.3-.1-.3-.1-.3-.08-.3-.07-.3-.04-.27-.04-.28v-.4l-.1-2.88-.9-2.9-3.8-5.9-4.52-6.9-.8-2.9.02-2.32.2-1.07 3.94-11.46 2.3-5.36.36-3.37-.02-1.5-.5-4.1-1.08-3.46-1.7-3.3-2.83-3.7-7.7-7.8-.65-1.25-.3-.95-.1-.9.03-.87.2-.86.37-.85.57-.9.9-.94 1.52-1.13.67-.4 4.5-3.04-5.16-3.27-1.62-2.13-.87-2.16-.27-2.33.04-.82 1.93-12.3 2.02-4.9 2.03-2.8 1.94-2-.04-.3-2.13-4.95-4.97-7.27-.1-.08-22.15-14.37-1.25-1.88-.5-1.3-.15-1.1.03-.8.6-3.17.93-3.23 1.4-3.44 2-3.75 2.88-4.27 4.35-5.2 7.37-7.15 26.17-20.5 9.8-8.46 3.92-4.24 2.18-2.95 1.32-2.28.83-1.9.52-1.63.3-1.48.12-1.4-.04-1.36-.2-1.4-.35-1.45-.57-1.6-.9-1.82-1.36-2.13-2.1-2.63-3.45-3.43-1.37-1.2-.2-.18-.26-.25-.25-.26-.24-.3-.2-.32-.23-.35-.2-.4-.2-.42-.2-.47-.17-.54-.17-.62-.15-.7-.13-.86-.1-1.03-.03-1.3.04-1.67.2-2.26.44-3.22.98-4.86 2.06-7.87 4.4-13.5 8.63-22.2 11.44-25.2.8-1.6 14-25.42 10.08-14.84 7.2-8.73 5.04-5.04 4.97-4.2 6.06-4.48 7.34-4.72 8.7-4.83 10.07-4.78 11.5-4.56 12.98-4.2L948 214.4l2.7-.58 7.04-1.25z" stroke="#3a414a" stroke-width=".05" fill="#3a414a"/><path d="M924.4 799.6l-14.9-1.6 13-7.5z" fill="#3a414a"/><path d="M928.2 803l-28.2-3 24.58-14.14zm-9.2-7l1.63.16-.2-1zM1225.15 785.9l-10.3 28.2-5.64-2.08 10.32-28.17z" stroke="#3a414a" stroke-width=".05" fill="#3a414a"/><use xlink:href="#a" transform="matrix(1,0,0,1,957.7399318615734,204.07662050595627) translate(0 14.222222222222223)"/><path d="M889.05 340.2l.54-1.5 2.12-4.3 1.94-2.96 1.87-2.23 1.9-1.77 1.98-1.47 2.2-1.24 2.53-1.08 3.13-.9 4.2-.7 6.54-.27 7.92.44.65.1.72.15.83.26.98.4 1.22.63 1.53.95 2.06 1.53 3 2.66 5.1 5.35 33.73 41.15 3.05 2.7 2.1 1.57 1.57.97 1.23.6 1.02.43.22.07 3.95 1.05 4.6.65 4.75.1 4.5-.45 4.04-.9 3.5-1.24 3.04-1.5 2.62-1.7 2.27-1.94 1.97-2.13 1.73-2.38 1.5-2.7 1.25-3.1.98-3.62.64-4.4.15-3.73-.35-6.05-.9-4.92-1.25-4.1-1.55-3.45-1.8-2.98-2.02-2.6-2.26-2.27-2.53-1.98-2.83-1.72-3.18-1.44-3.6-1.14-4.08-.76-4.64-.3-5.27.3-5.25.9-1.43.4-1.52.54-1.62.73-1.78 1-2 1.32-2.34 1.84-2.87 2.67-3.86 4.24-6.8 8.86-19 26.28-4.3 4.7-3.26 3.07-2.72 2.14-2.37 1.57-2.13 1.18-1.96.9-1.54.56-4.52 1.13-5.02.5-5.62-.28-6.2-1.22-6.4-2.26-4.7-2.48" stroke="#cc4e00" stroke-width="4" stroke-linejoin="round" fill="none"/><path d="M885.03 355.93l-.95-14.97 8.98 2.3zM886.12 368.1l10.17 11.02-8.44 3.87z" stroke="#cc4e00" stroke-width="4" fill="#cc4e00"/><defs><path fill="#333" d="M25 0v-261h50V0H25" id="b"/><path fill="#333" d="M25-224v-37h50v37H25zM25 0v-190h50V0H25" id="c"/><g id="a"><use transform="matrix(0.04938271604938272,0,0,0.04938271604938272,0,0)" xlink:href="#b"/><use transform="matrix(0.04938271604938272,0,0,0.04938271604938272,4.938271604938272,0)" xlink:href="#c"/></g></defs></g></svg>